<?xml version="1.0" encoding="UTF-8"?>
<svg width="24px" height="24px" viewBox="0 0 24 24" version="1.1" xmlns="http://www.w3.org/2000/svg" xmlns:xlink="http://www.w3.org/1999/xlink">
    <!-- Generator: Sketch 52.5 (67469) - http://www.bohemiancoding.com/sketch -->
    <title>like</title>
    <desc>Created with Sketch.</desc>
    <defs>
        <path d="M12,21.35 L10.55,20.03 C5.4,15.36 2,12.28 2,8.5 C2,5.42 4.42,3 7.5,3 C9.24,3 10.91,3.81 12,5.09 C13.09,3.81 14.76,3 16.5,3 C19.58,3 22,5.42 22,8.5 C22,12.28 18.6,15.36 13.45,20.04 L12,21.35 Z" id="path-1"></path>
    </defs>
    <g id="Page-1" stroke="none" stroke-width="1" fill="none" fill-rule="evenodd">
        <g id="Artboard" transform="translate(-386.000000, -242.000000)">
            <g id="Tab-bar" transform="translate(163.000000, 218.000000)">
                <g id="menu-item-copy-2" transform="translate(188.000000, 0.000000)">
                    <rect id="Rectangle" fill-opacity="0" fill="#FFFFFF" fill-rule="nonzero" x="0" y="0" width="93.75" height="72"></rect>
                    <g id="ic/favorite" transform="translate(35.000000, 24.000000)">
                        <g id="ic_favorite_24px">
                            <mask id="mask-2" fill="white">
                                <use xlink:href="#path-1"></use>
                            </mask>
                            <g id="Path"></g>
                            <g id="c/base" mask="url(#mask-2)" fill="#FFE6CF">
                                <rect id="Shape" x="0" y="0" width="24" height="24"></rect>
                            </g>
                        </g>
                    </g>
                </g>
            </g>
        </g>
    </g>
</svg>