<?xml version="1.0" encoding="UTF-8"?>
<svg width="24px" height="24px" viewBox="0 0 24 24" version="1.1" xmlns="http://www.w3.org/2000/svg" xmlns:xlink="http://www.w3.org/1999/xlink">
    <!-- Generator: Sketch 52.5 (67469) - http://www.bohemiancoding.com/sketch -->
    <title>puzzle</title>
    <desc>Created with Sketch.</desc>
    <defs>
        <path d="M20.5,11 L19,11 L19,7 C19,5.9 18.1,5 17,5 L13,5 L13,3.5 C13,2.12 11.88,1 10.5,1 C9.12,1 8,2.12 8,3.5 L8,5 L4,5 C2.9,5 2.01,5.9 2.01,7 L2.01,10.8 L3.5,10.8 C4.99,10.8 6.2,12.01 6.2,13.5 C6.2,14.99 4.99,16.2 3.5,16.2 L2,16.2 L2,20 C2,21.1 2.9,22 4,22 L7.8,22 L7.8,20.5 C7.8,19.01 9.01,17.8 10.5,17.8 C11.99,17.8 13.2,19.01 13.2,20.5 L13.2,22 L17,22 C18.1,22 19,21.1 19,20 L19,16 L20.5,16 C21.88,16 23,14.88 23,13.5 C23,12.12 21.88,11 20.5,11 Z" id="path-1"></path>
    </defs>
    <g id="Page-1" stroke="none" stroke-width="1" fill="none" fill-rule="evenodd">
        <g id="Artboard" transform="translate(-22.000000, -580.000000)">
            <g id="mycell-copy-3" transform="translate(22.000000, 580.000000)">
                <g id="ic/extension">
                    <g id="ic_extension_24px">
                        <mask id="mask-2" fill="white">
                            <use xlink:href="#path-1"></use>
                        </mask>
                        <g id="Path"></g>
                        <g id="c/base" mask="url(#mask-2)" fill="#FFE6CF">
                            <rect id="Shape" x="0" y="0" width="24" height="24"></rect>
                        </g>
                    </g>
                </g>
            </g>
        </g>
    </g>
</svg>